<svg width="151" height="14" viewBox="0 0 151 14" fill="none" xmlns="http://www.w3.org/2000/svg">
<path d="M149.498 1.34909C148.946 0.366545 148.346 0.185818 147.126 0.117091C145.907 0.0343636 142.841 0 140.184 0C137.523 0 134.456 0.0343637 133.238 0.115818C132.02 0.185818 131.419 0.365273 130.862 1.34909C130.293 2.33036 130 4.02055 130 6.99618C130 6.99873 130 7 130 7C130 7.00255 130 7.00382 130 7.00382V7.00636C130 9.96927 130.293 11.6722 130.862 12.6433C131.419 13.6258 132.019 13.804 133.237 13.8867C134.456 13.958 137.523 14 140.184 14C142.841 14 145.907 13.958 147.127 13.888C148.348 13.8053 148.947 13.6271 149.499 12.6445C150.073 11.6735 150.364 9.97054 150.364 7.00764C150.364 7.00764 150.364 7.00382 150.364 7.00127C150.364 7.00127 150.364 6.99873 150.364 6.99745C150.364 4.02055 150.073 2.33036 149.498 1.34909ZM137.636 10.8182V3.18182L144 7L137.636 10.8182Z" fill="#828181"/>
<path d="M104.878 0C101.041 0 99 2.45886 99 5.13998C99 6.38341 99.6948 7.93398 100.807 8.42576C100.976 8.50188 101.068 8.46951 101.105 8.31288C101.139 8.19387 101.285 7.62072 101.356 7.35033C101.377 7.2637 101.366 7.18845 101.296 7.10707C100.927 6.68005 100.634 5.90214 100.634 5.17236C100.634 3.3024 102.12 1.48669 104.65 1.48669C106.838 1.48669 108.368 2.90776 108.368 4.94047C108.368 7.23745 107.153 8.82652 105.573 8.82652C104.699 8.82652 104.048 8.14049 104.255 7.29171C104.504 6.28103 104.993 5.19424 104.993 4.46533C104.993 3.81167 104.624 3.2709 103.87 3.2709C102.98 3.2709 102.258 4.15206 102.258 5.33512C102.258 6.08678 102.524 6.5943 102.524 6.5943C102.524 6.5943 101.643 10.1505 101.48 10.8146C101.203 11.939 101.517 13.76 101.545 13.9166C101.561 14.0033 101.658 14.0304 101.713 13.9595C101.799 13.8458 102.863 12.3276 103.162 11.2303C103.27 10.8304 103.716 9.20892 103.716 9.20892C104.009 9.73832 104.855 10.182 105.756 10.182C108.437 10.182 110.375 7.82548 110.375 4.9011C110.365 2.09747 107.966 0 104.878 0Z" fill="#828181"/>
<path d="M79.2308 1.65738C78.59 1.93846 77.9072 2.12477 77.1954 2.21523C77.9277 1.778 78.4866 1.09092 78.7494 0.262769C78.0666 0.669846 77.3128 0.957385 76.5094 1.11785C75.8611 0.427539 74.9371 0 73.9291 0C71.9734 0 70.3989 1.58738 70.3989 3.53339C70.3989 3.81339 70.4226 4.08262 70.4808 4.33892C67.544 4.19569 64.9454 2.78815 63.1997 0.644C62.8949 1.17277 62.7162 1.778 62.7162 2.42954C62.7162 3.65292 63.3462 4.73738 64.2852 5.36523C63.7177 5.35446 63.1609 5.18969 62.6892 4.93015C62.6892 4.94092 62.6892 4.95492 62.6892 4.96892C62.6892 6.68554 63.9137 8.11139 65.5194 8.43985C65.2318 8.51846 64.9185 8.55615 64.5932 8.55615C64.3671 8.55615 64.1388 8.54323 63.9245 8.49585C64.3822 9.89477 65.6809 10.9232 67.2252 10.9566C66.0234 11.8968 64.4974 12.4632 62.8454 12.4632C62.5557 12.4632 62.2778 12.4503 62 12.4148C63.5648 13.4238 65.4192 14 67.4191 14C73.9194 14 77.4732 8.61539 77.4732 3.948C77.4732 3.79185 77.4678 3.64108 77.4603 3.49138C78.1614 2.99385 78.7505 2.37246 79.2308 1.65738Z" fill="#828181"/>
<path d="M35.1378 14C35.0915 14 35.0451 14 34.9984 13.9998C33.901 14.0025 32.8871 13.9746 31.901 13.9146C30.9969 13.8595 30.1717 13.5471 29.5144 13.0111C28.8801 12.494 28.447 11.7947 28.2271 10.9329C28.0357 10.1827 28.0255 9.44619 28.0158 8.73386C28.0088 8.22276 28.0015 7.61714 28 7.00126C28.0015 6.38282 28.0088 5.7772 28.0158 5.2661C28.0255 4.55388 28.0357 3.81742 28.2271 3.06706C28.447 2.2053 28.8801 1.50601 29.5144 0.988825C30.1717 0.452843 30.9969 0.140418 31.9011 0.0854102C32.8872 0.0254888 33.9014 -0.00249595 35.0011 0.000174347C36.0988 -0.00217551 37.1124 0.0254888 38.0985 0.0854102C39.0026 0.140418 39.8278 0.452843 40.4851 0.988825C41.1195 1.50601 41.5525 2.2053 41.7724 3.06706C41.9638 3.81731 41.974 4.55388 41.9837 5.2661C41.9907 5.7772 41.9981 6.38282 41.9995 6.9987V7.00126C41.9981 7.61714 41.9907 8.22276 41.9837 8.73386C41.974 9.44608 41.9639 10.1825 41.7724 10.9329C41.5525 11.7947 41.1195 12.494 40.4851 13.0111C39.8278 13.5471 39.0026 13.8595 38.0985 13.9146C37.1542 13.972 36.1841 14 35.1378 14ZM34.9984 12.906C36.078 12.9086 37.0692 12.8814 38.0321 12.8228C38.7157 12.7813 39.3084 12.5594 39.7939 12.1635C40.2428 11.7974 40.5519 11.2924 40.7126 10.6625C40.872 10.0379 40.8812 9.36736 40.89 8.7189C40.897 8.21123 40.9043 7.60988 40.9058 6.99998C40.9043 6.38998 40.897 5.78873 40.89 5.28106C40.8812 4.6326 40.872 3.96204 40.7126 3.3374C40.5519 2.70743 40.2428 2.20242 39.7939 1.83638C39.3084 1.44053 38.7157 1.21868 38.0321 1.17713C37.0692 1.11849 36.078 1.09147 35.001 1.09382C33.9216 1.09126 32.9303 1.11849 31.9674 1.17713C31.2838 1.21868 30.6911 1.44053 30.2056 1.83638C29.7567 2.20242 29.4476 2.70743 29.2869 3.3374C29.1275 3.96204 29.1183 4.6325 29.1095 5.28106C29.1025 5.78916 29.0952 6.39083 29.0938 7.00126C29.0952 7.60902 29.1025 8.2108 29.1095 8.7189C29.1183 9.36736 29.1275 10.0379 29.2869 10.6625C29.4476 11.2924 29.7567 11.7974 30.2056 12.1635C30.6911 12.5593 31.2838 12.7812 31.9674 12.8227C32.9303 12.8814 33.9219 12.9087 34.9984 12.906ZM34.9724 10.418C33.0878 10.418 31.5544 8.88468 31.5544 6.99998C31.5544 5.11529 33.0878 3.582 34.9724 3.582C36.857 3.582 38.3903 5.11529 38.3903 6.99998C38.3903 8.88468 36.857 10.418 34.9724 10.418ZM34.9724 4.67576C33.6908 4.67576 32.6481 5.71845 32.6481 6.99998C32.6481 8.28151 33.6908 9.32421 34.9724 9.32421C36.254 9.32421 37.2966 8.28151 37.2966 6.99998C37.2966 5.71845 36.254 4.67576 34.9724 4.67576ZM38.7731 2.48825C38.3202 2.48825 37.9528 2.85547 37.9528 3.30856C37.9528 3.76166 38.3202 4.12888 38.7731 4.12888C39.2262 4.12888 39.5935 3.76166 39.5935 3.30856C39.5935 2.85547 39.2262 2.48825 38.7731 2.48825Z" fill="#828181"/>
<path d="M7.28408 0.00291293L5.4686 0C3.42896 0 2.11086 1.35233 2.11086 3.44542V5.03399H0.285468C0.127732 5.03399 0 5.16187 0 5.3196V7.62126C0 7.77899 0.127878 7.90672 0.285468 7.90672H2.11086V13.7145C2.11086 13.8723 2.23859 14 2.39633 14H4.77794C4.93568 14 5.06341 13.8721 5.06341 13.7145V7.90672H7.19772C7.35545 7.90672 7.48318 7.77899 7.48318 7.62126L7.48406 5.3196C7.48406 5.24386 7.45391 5.17133 7.40046 5.11773C7.347 5.06414 7.27418 5.03399 7.19844 5.03399H5.06341V3.68734C5.06341 3.04008 5.21765 2.71151 6.0608 2.71151L7.28379 2.71107C7.44138 2.71107 7.56911 2.58319 7.56911 2.4256V0.288381C7.56911 0.130936 7.44153 0.00320423 7.28408 0.00291293Z" fill="#828181"/>
</svg>
