<svg width="16" height="16" viewBox="0 0 16 16" fill="none" xmlns="http://www.w3.org/2000/svg">
<path fill-rule="evenodd" clip-rule="evenodd" d="M2.86128 2.86225C3.12163 2.6019 3.54374 2.6019 3.80409 2.86225L7.99934 7.05751L12.1946 2.86225C12.455 2.6019 12.8771 2.60191 13.1374 2.86225C13.3978 3.1226 13.3978 3.54471 13.1374 3.80506L8.94215 8.00032L13.1374 12.1956C13.3978 12.4559 13.3978 12.878 13.1374 13.1384C12.8771 13.3987 12.455 13.3987 12.1946 13.1384L7.99934 8.94313L3.80409 13.1384C3.54374 13.3987 3.12163 13.3987 2.86128 13.1384C2.60093 12.878 2.60093 12.4559 2.86128 12.1956L7.05654 8.00032L2.86128 3.80506C2.60093 3.54471 2.60093 3.1226 2.86128 2.86225Z" fill="#9A9CA5"/>
</svg>
