<svg width="405" height="800" viewBox="0 0 405 800" fill="none" xmlns="http://www.w3.org/2000/svg">
<g opacity="0.4">
<path d="M248.449 242.589C235.96 210.87 209.934 194.584 178.897 185.35C147.837 176.109 111.869 173.96 79.5729 170.45C46.5398 166.861 9.7136 160.326 -24.1926 162.123C-58.0699 163.919 -88.9148 174.031 -110.012 203.658C-130.489 232.413 -126.136 264.125 -116.3 297.602C-113.842 305.968 -111.046 314.435 -108.213 322.989C-105.381 331.539 -102.512 340.176 -99.9182 348.87C-94.73 366.258 -90.6272 383.903 -90.0829 401.615C-89.4864 421.032 -93.1639 441.301 -98.243 461.59C-100.783 471.736 -103.676 481.895 -106.563 491.959C-109.45 502.026 -112.331 511.996 -114.853 521.777C-124.952 560.948 -129.208 596.827 -105.211 623.243C-79.5872 651.449 -40.2886 663.354 0.884627 662.45C42.0541 661.546 85.0248 647.833 117.904 624.898C146.247 605.126 156.192 573.286 161.955 537.689C164.839 519.88 166.666 501.214 169.245 482.637C171.822 464.084 175.145 445.669 181.013 428.48C186.64 411.997 195.191 395.942 204.458 380.189C213.738 364.414 223.709 348.984 232.245 333.651C249.312 302.996 260.446 273.056 248.449 242.589Z" stroke="#00F0B5"/>
<path d="M198.99 276.053C189.174 251.123 168.717 238.315 144.297 231.05C119.855 223.778 91.5503 222.088 66.1145 219.324C40.0958 216.496 11.1172 211.353 -15.5672 212.767C-42.2229 214.18 -66.4723 222.134 -83.0576 245.425C-99.1494 268.023 -95.7354 292.947 -87.9928 319.3C-86.0582 325.884 -83.8567 332.549 -81.6261 339.284C-79.3964 346.016 -77.1377 352.817 -75.0947 359.665C-71.0088 373.358 -67.7747 387.261 -67.3458 401.22C-66.8757 416.522 -69.7747 432.492 -73.7745 448.47C-75.7748 456.46 -78.0529 464.461 -80.3257 472.384C-82.5993 480.31 -84.8673 488.16 -86.8524 495.859C-94.8048 526.703 -98.1362 554.897 -79.2853 575.647C-59.1383 597.825 -28.231 607.193 4.1675 606.481C36.5621 605.77 70.3742 594.979 96.2439 576.933C118.522 561.393 126.346 536.363 130.883 508.341C133.154 494.319 134.591 479.632 136.623 464.998C138.652 450.389 141.269 435.882 145.893 422.338C150.327 409.35 157.064 396.703 164.361 384.298C171.671 371.871 179.517 359.731 186.238 347.658C199.674 323.525 208.416 299.991 198.99 276.053Z" stroke="#00F0B5"/>
<path d="M163.254 300.232C155.369 280.206 138.937 269.912 119.298 264.069C99.6367 258.22 76.8692 256.859 56.3897 254.634C35.4391 252.357 12.1305 248.22 -9.33607 249.358C-30.7742 250.494 -50.2577 256.891 -63.583 275.603C-76.5062 293.752 -73.7718 313.77 -67.5418 334.975C-65.9853 340.273 -64.2133 345.636 -62.4179 351.057C-60.6234 356.474 -58.8051 361.95 -57.1603 367.463C-53.8708 378.487 -51.2654 389.686 -50.9197 400.934C-50.5409 413.263 -52.8762 426.128 -56.0962 438.99C-57.7066 445.423 -59.5407 451.864 -61.3699 458.241C-63.1999 464.621 -65.0254 470.937 -66.6227 477.132C-73.024 501.959 -75.6876 524.6 -60.5547 541.258C-44.3648 559.079 -19.521 566.615 6.53735 566.043C32.592 565.471 59.788 556.791 80.5933 542.278C98.4898 529.794 104.782 509.684 108.432 487.135C110.26 475.85 111.415 464.038 113.052 452.254C114.685 440.493 116.792 428.81 120.516 417.901C124.088 407.438 129.515 397.251 135.389 387.265C141.276 377.258 147.586 367.494 152.996 357.778C163.808 338.357 170.822 319.453 163.254 300.232Z" stroke="#00F0B5"/>
</g>
</svg>
